<svg xmlns="http://www.w3.org/2000/svg" xmlns:xlink="http://www.w3.org/1999/xlink" width="500" zoomAndPan="magnify" viewBox="0 0 375 374.999991" height="500" preserveAspectRatio="xMidYMid meet" version="1.0"><defs><clipPath id="f40358ff50"><path d="M 175 16 L 363.292969 16 L 363.292969 134 L 175 134 Z M 175 16 " clip-rule="nonzero"/></clipPath><clipPath id="c8797d0039"><path d="M 26.542969 16 L 363 16 L 363 337.75 L 26.542969 337.75 Z M 26.542969 16 " clip-rule="nonzero"/></clipPath><clipPath id="c079dd46fa"><path d="M 52.691406 110.453125 L 254.363281 110.453125 L 254.363281 326.089844 L 52.691406 326.089844 Z M 52.691406 110.453125 " clip-rule="nonzero"/></clipPath><clipPath id="b756dedf1d"><path d="M 141.820312 224.9375 C 140.992188 225.011719 140.6875 225.371094 141.015625 226.078125 L 141.179688 226.230469 C 141.621094 226.441406 141.832031 226.308594 142.429688 226.195312 L 143.132812 226.082031 C 143.757812 225.90625 143.433594 226.359375 143.613281 225.746094 L 143.613281 225.585938 L 143.445312 225.253906 C 143.300781 225.253906 143.109375 225.261719 142.972656 225.242188 C 142.644531 225.191406 142.808594 225.203125 142.644531 225.101562 L 141.988281 225.089844 Z M 128.089844 221.710938 C 127.925781 221.136719 127.394531 221.304688 125.828125 220.894531 C 124.441406 220.527344 125.246094 219.96875 123.71875 219.917969 L 123.34375 219.769531 L 123.074219 219.761719 L 122.914062 219.609375 C 122.285156 219.199219 122.492188 218.941406 121.964844 218.613281 C 121.625 218.40625 120.757812 218.257812 120.324219 218.144531 L 120.167969 217.992188 C 119.664062 217.878906 119.6875 217.792969 119.191406 217.660156 L 119.019531 217.507812 C 118.3125 217.34375 117.792969 216.851562 117.214844 216.738281 C 116.792969 216.660156 116.398438 216.738281 115.976562 216.683594 C 115.339844 216.597656 115.546875 216.441406 114.824219 216.378906 C 114.335938 216.335938 114.28125 216.398438 113.84375 216.386719 L 113.164062 216.214844 L 112.90625 216.214844 L 112.722656 216.367188 C 112.320312 216.476562 112.332031 216.449219 111.910156 216.535156 C 111.167969 216.6875 111.683594 216.519531 111.09375 216.851562 C 110.589844 217.125 110.136719 217.25 109.792969 217.671875 L 109.652344 217.824219 C 109.292969 218.59375 109.453125 219.46875 110.773438 218.636719 L 110.875 218.570312 L 112.410156 217.671875 L 112.5625 217.503906 C 113.675781 217.265625 113.132812 217.191406 113.90625 217.777344 C 115.015625 218.625 114.234375 217.445312 117.058594 218.835938 C 117.664062 219.132812 117.683594 219.273438 118.707031 219.296875 C 118.847656 219.296875 119.039062 219.285156 119.179688 219.308594 C 119.488281 219.355469 119.363281 219.359375 119.515625 219.449219 C 120.664062 220.058594 120.085938 220.265625 120.894531 220.652344 C 121.238281 220.820312 121.417969 220.78125 121.835938 221.007812 C 122.265625 221.234375 122.226562 221.308594 122.585938 221.546875 C 122.320312 221.945312 121.074219 222.960938 122.703125 223.003906 L 122.910156 222.847656 C 123.511719 222.296875 125.007812 222.515625 126.261719 222.515625 C 126.410156 222.433594 126.011719 222.355469 126.773438 222.371094 C 127.445312 222.382812 126.917969 222.300781 127.128906 222.515625 L 127.769531 222.515625 L 127.921875 222.363281 L 128.089844 222.03125 Z M 136.53125 223.445312 C 136.121094 223.050781 136.253906 222.988281 135.683594 222.84375 L 135.394531 222.679688 L 134.882812 222.679688 C 134.855469 222.710938 134.515625 223.21875 134.515625 222.679688 C 133.289062 222.566406 134.160156 222.125 132.507812 222.578125 C 131.550781 222.84375 131.019531 222.4375 130.1875 222.34375 L 130.023438 222.34375 C 129.722656 222.433594 129.765625 222.390625 129.539062 222.515625 C 129.578125 224.285156 130.503906 222.792969 130.832031 223.949219 L 130.976562 224.128906 L 130.992188 224.453125 L 130.992188 224.695312 C 130.488281 225.160156 129.054688 224.9375 128.40625 224.769531 L 128.082031 224.769531 C 127.808594 224.980469 127.496094 225.359375 127.890625 225.75 C 128.15625 226.019531 128.902344 225.917969 129.375 225.910156 L 132.277344 226.070312 L 132.277344 226.550781 C 132.417969 227.074219 132.859375 227.363281 133.472656 227.113281 C 134.050781 226.875 133.980469 226.417969 134.226562 225.910156 C 136.542969 225.910156 135.332031 225.585938 137.148438 225.585938 L 137.300781 225.433594 C 137.433594 225.5 137.429688 225.480469 137.613281 225.601562 C 137.703125 225.664062 137.980469 225.875 138 225.882812 C 138.511719 226.183594 138.421875 226.210938 138.765625 225.746094 L 138.765625 225.261719 C 138.519531 224.914062 138.472656 224.839844 138.269531 224.445312 L 138.105469 224.292969 C 137.785156 224.128906 137.9375 224.175781 137.460938 224.113281 L 137.316406 223.972656 C 136.8125 223.71875 136.945312 223.847656 136.53125 223.445312 Z M 237.53125 182.625 L 236.238281 182.625 C 236.082031 182.730469 236.199219 182.691406 235.910156 182.769531 C 235.855469 182.789062 235.699219 182.78125 235.601562 182.785156 C 234.960938 182.804688 234.191406 183.078125 233.707031 183.320312 C 233.042969 183.65625 232.792969 184.0625 232.054688 184.242188 L 231.882812 184.40625 C 231.355469 184.402344 231.148438 184.445312 230.683594 184.304688 C 230.011719 184.105469 230.402344 184.085938 229.78125 183.914062 L 229.621094 183.753906 C 228.898438 183.585938 228.605469 183.578125 228.003906 183.28125 L 227.84375 183.109375 L 227.667969 182.949219 C 226.96875 182.601562 226.574219 182.699219 226.386719 183.433594 L 226.386719 184.722656 L 226.222656 184.886719 C 226.089844 185.386719 226.085938 185.253906 225.714844 185.507812 C 225.371094 185.75 225.386719 185.675781 225.050781 185.976562 C 224.625 186.351562 224.257812 186.703125 223.953125 187.148438 L 223.800781 187.308594 C 223.378906 187.933594 222.820312 189.007812 222.835938 190.054688 L 222.835938 191.667969 L 222.828125 192.476562 C 222.300781 192.617188 222.265625 192.78125 221.898438 193.160156 C 221.550781 193.511719 221.308594 193.703125 221.046875 194.09375 L 220.886719 194.253906 L 220.390625 194.898438 L 220.242188 195.050781 C 220.003906 195.417969 219.695312 195.804688 219.429688 196.191406 L 219.269531 196.398438 C 218.890625 197 218.605469 197.542969 218.210938 198.199219 C 217.78125 198.910156 217.414062 199.433594 217.019531 200.066406 L 216.84375 200.230469 C 216.398438 200.890625 215.625 201.570312 215.234375 202.167969 C 215.234375 202.417969 215.304688 202.367188 215.066406 202.367188 C 214.855469 202.628906 214.703125 202.746094 214.46875 203.019531 C 214.253906 203.277344 214.105469 203.523438 213.933594 203.78125 L 213.773438 203.941406 C 213.597656 204.273438 213.550781 204.328125 213.449219 204.75 L 213.285156 204.914062 C 213.132812 205.585938 212.859375 206.449219 212.804688 207.1875 C 212.726562 208.214844 213.054688 208.746094 213.128906 209.597656 L 213.285156 209.753906 C 213.449219 210.445312 213.902344 211.175781 214.257812 211.683594 L 214.421875 211.859375 L 214.421875 212.011719 L 214.582031 212.179688 C 214.726562 212.796875 214.890625 212.902344 214.90625 213.660156 C 215.0625 213.886719 215.246094 214.152344 214.90625 214.417969 C 214.90625 215.320312 214.648438 215.761719 214.582031 216.542969 L 214.421875 216.699219 L 214.421875 216.863281 L 214.257812 217.035156 C 213.839844 217.636719 213.355469 217.683594 213.285156 218.476562 L 213.285156 218.964844 C 213.355469 219.765625 213.84375 219.796875 214.257812 220.417969 C 214.097656 221.011719 214.097656 220.625 213.933594 221.222656 L 213.773438 221.390625 C 213.648438 222.898438 213.5 222.996094 214.539062 224.011719 C 215.210938 224.667969 215.757812 225.238281 216.199219 226.070312 L 216.371094 226.230469 C 216.722656 226.9375 216.945312 227.269531 217.394531 227.945312 C 217.625 228.285156 217.769531 228.527344 217.976562 228.816406 C 218.222656 229.15625 218.394531 229.277344 218.621094 229.617188 L 218.796875 229.785156 L 218.945312 229.933594 L 219.113281 230.113281 L 219.265625 230.269531 L 219.441406 230.421875 L 219.605469 230.582031 L 219.761719 230.761719 L 219.910156 230.914062 L 220.09375 231.066406 L 220.242188 231.238281 L 220.402344 231.398438 C 220.910156 231.738281 221.519531 232.300781 222.019531 232.691406 C 222.609375 233.144531 223.046875 233.636719 223.59375 234.1875 C 223.875 234.464844 224.054688 234.625 224.324219 234.90625 C 225.890625 236.535156 224.773438 236.300781 227.347656 236.085938 L 227.679688 235.921875 C 228.527344 235.921875 229.179688 235.664062 229.949219 235.605469 C 230.777344 235.542969 231.839844 235.597656 232.691406 235.597656 C 232.839844 235.503906 232.746094 235.53125 233.023438 235.453125 C 233.074219 235.441406 233.25 235.441406 233.339844 235.441406 L 233.949219 235.4375 C 234.207031 235.285156 233.742188 235.441406 234.308594 235.28125 C 234.363281 235.269531 234.539062 235.273438 234.632812 235.273438 C 235.394531 235.261719 235.691406 235.015625 236.367188 234.953125 C 236.367188 234.722656 236.320312 234.789062 236.570312 234.789062 C 237.152344 234.742188 237.339844 234.589844 237.855469 234.464844 L 238.023438 234.304688 C 239.21875 234.035156 239.753906 233.574219 240.933594 234.144531 L 241.257812 234.464844 C 241.6875 234.695312 241.726562 234.773438 242.390625 234.789062 C 242.640625 234.789062 242.589844 234.722656 242.589844 234.953125 C 243.226562 235.117188 243.601562 235.457031 243.910156 236.015625 C 244.296875 236.707031 244.167969 237.371094 244.167969 238.347656 L 244.007812 238.523438 C 243.863281 239.105469 243.738281 238.960938 243.6875 239.636719 L 243.523438 239.800781 L 243.515625 240.121094 L 243.359375 240.296875 C 243.359375 241.09375 243.21875 241.167969 243.207031 241.746094 C 243.1875 242.386719 243.359375 242.511719 243.359375 243.351562 L 243.515625 243.515625 L 243.523438 243.851562 L 243.6875 244.15625 L 243.847656 244.78125 L 244.007812 244.964844 L 244.492188 246.570312 L 244.65625 246.742188 L 244.652344 247.164062 L 244.808594 247.386719 C 244.886719 248.171875 245.140625 248.40625 245.140625 249.316406 L 245.292969 249.488281 L 245.304688 250.074219 C 245.40625 250.273438 245.328125 249.894531 245.449219 250.460938 C 245.472656 250.5625 245.460938 250.824219 245.460938 250.941406 L 245.464844 253.367188 C 245.460938 253.601562 245.46875 253.578125 245.421875 253.800781 L 245.363281 253.910156 C 245.359375 253.886719 245.324219 253.972656 245.304688 254.003906 L 245.324219 254.492188 L 245.140625 254.777344 C 245.089844 255.40625 244.945312 255.5625 244.808594 256.109375 L 244.652344 256.277344 C 244.523438 256.824219 244.25 257.269531 244.007812 257.726562 C 244.007812 257.964844 244.074219 257.914062 243.847656 257.914062 C 243.433594 258.609375 242.589844 260.277344 242.386719 261.117188 L 242.230469 261.273438 C 242.105469 261.800781 241.953125 261.984375 241.910156 262.570312 C 241.910156 262.8125 241.976562 262.761719 241.742188 262.761719 C 241.585938 263.375 241.324219 264.171875 241.25 264.828125 L 241.097656 265.160156 C 241.070312 266.335938 240.613281 267.253906 240.613281 268.707031 C 240.613281 269.386719 240.570312 269.078125 240.453125 269.230469 C 240.453125 270.328125 240.296875 270.824219 240.289062 271.824219 C 249.246094 256.082031 254.363281 237.878906 254.363281 218.476562 C 254.363281 209.691406 253.316406 201.148438 251.335938 192.96875 C 251.300781 192.992188 251.257812 193.019531 251.210938 193.054688 C 251.175781 193.078125 250.46875 193.394531 250.417969 193.410156 C 249.738281 193.6875 249.675781 193.472656 249.019531 193.121094 L 248.851562 192.960938 C 248.398438 192.648438 248.1875 192.316406 247.75 191.964844 C 247.3125 191.613281 246.882812 191.328125 246.433594 191.019531 L 246.277344 190.859375 C 245.308594 190.363281 244.78125 189.628906 244.167969 188.78125 C 243.929688 188.78125 243.992188 188.839844 243.992188 188.601562 C 243.714844 188.011719 243.488281 187.257812 243.199219 186.667969 L 243.035156 186.5 C 242.816406 185.65625 241.84375 184.660156 241.214844 184.125 C 240.527344 183.539062 239.289062 182.910156 238.1875 182.769531 C 237.964844 182.769531 237.953125 182.773438 237.742188 182.730469 C 237.710938 182.730469 237.648438 182.730469 237.628906 182.683594 C 237.609375 182.640625 237.5625 182.644531 237.53125 182.625 Z M 230.101562 160.5 C 229.269531 160.519531 229.234375 160.675781 228.703125 161.039062 C 228.066406 161.46875 227.820312 161.300781 226.867188 161.3125 L 226.703125 161.144531 C 226.121094 161.007812 225.601562 160.5625 225.054688 161.113281 C 224.507812 161.65625 224.960938 162.164062 225.25 162.601562 L 226.058594 162.605469 L 226.21875 162.757812 C 226.898438 162.914062 227.445312 163.421875 227.820312 163.910156 C 228.214844 164.421875 228.667969 164.929688 229.003906 165.46875 C 229.523438 166.292969 230.699219 168.703125 229.636719 169.542969 L 229.457031 169.703125 C 228.082031 170.027344 228.046875 169.671875 226.867188 169.722656 L 226.574219 169.542969 C 226.097656 169.4375 226.324219 169.585938 226.058594 169.253906 C 225.832031 169.253906 225.902344 169.308594 225.902344 169.054688 C 225.71875 168.382812 225.625 168.414062 224.808594 168.414062 C 224.808594 168.644531 224.859375 168.574219 224.605469 168.574219 C 224.148438 168.792969 224.140625 168.691406 223.636719 168.574219 C 223.363281 168.574219 223.414062 168.652344 223.414062 168.414062 L 223.152344 168.417969 L 222.984375 168.25 C 222.070312 167.804688 221.777344 168.355469 221.207031 168.738281 C 221.207031 170.046875 221.523438 169.746094 221.609375 170.550781 C 221.695312 171.363281 221.324219 171.195312 221.789062 172.359375 C 222.535156 174.214844 221.429688 175.035156 221.207031 175.84375 L 221.207031 176.484375 L 222.015625 177.464844 L 222.175781 177.621094 L 222.179688 177.75 C 222.410156 177.75 222.347656 177.695312 222.347656 177.941406 L 222.347656 178.910156 C 222.347656 179.207031 222.433594 179.152344 222.179688 179.152344 C 222.179688 180.042969 222.265625 180.378906 223.003906 180.511719 C 223.324219 180.566406 223.664062 180.554688 224.03125 180.617188 C 224.511719 180.695312 224.710938 180.761719 225.089844 180.84375 C 225.371094 180.84375 225.320312 180.765625 225.320312 181.011719 C 226.089844 181.265625 226.292969 182.339844 227.28125 182.082031 C 228.144531 181.863281 227.871094 181.074219 229.617188 180.988281 L 229.90625 181.171875 L 231.234375 181.171875 L 231.394531 181.011719 C 232.226562 180.816406 232.1875 180.683594 232.53125 180.039062 L 232.691406 179.871094 C 232.765625 178.992188 232.75 179.226562 232.722656 178.414062 C 232.703125 177.8125 232.960938 177.453125 233.011719 176.8125 L 233.175781 176.484375 C 233.214844 174.816406 234.820312 175.484375 235.332031 174.121094 C 235.636719 173.324219 235.09375 172.5 235.796875 172.308594 C 236.414062 172.140625 236.515625 172.894531 237.054688 173.261719 L 237.253906 173.417969 C 239.125 173.417969 238.050781 172.59375 239.519531 172.289062 C 239.585938 172.183594 239.824219 171.796875 239.824219 172.289062 C 240.753906 172.554688 240.875 173.761719 241.097656 174.714844 L 241.257812 174.875 C 241.359375 175.296875 241.40625 175.347656 241.585938 175.675781 L 241.742188 175.84375 C 242.191406 176.695312 242.882812 177.226562 243.5625 177.898438 C 244.335938 178.667969 244.703125 179.152344 245.304688 180.035156 L 245.464844 180.203125 C 245.585938 180.4375 245.644531 180.582031 245.785156 180.800781 C 246.015625 180.800781 245.945312 180.75 245.945312 181.011719 C 246.03125 181.375 246.09375 181.476562 246.1875 181.902344 C 246.363281 182.707031 246.035156 182.632812 246.59375 182.792969 L 246.753906 182.792969 C 247.289062 182.683594 246.976562 182.996094 247.082031 182.464844 C 247.082031 181.746094 246.996094 181.734375 247.242188 181.304688 C 247.566406 181.257812 247.523438 181.261719 247.757812 181.203125 C 247.628906 180.855469 247.503906 180.507812 247.371094 180.164062 L 246.917969 179.726562 L 246.753906 179.558594 L 246.589844 179.394531 C 246.445312 178.828125 245.929688 178.238281 245.625 177.769531 L 245.460938 177.625 L 245.304688 177.457031 C 244.597656 176.421875 243.914062 176.242188 243.199219 174.871094 L 243.039062 174.714844 C 242.859375 174.386719 242.761719 174.285156 242.710938 173.816406 C 242.46875 173.816406 242.554688 173.867188 242.554688 173.582031 L 242.550781 173.417969 C 242.71875 173.15625 242.554688 173.15625 242.722656 173.417969 C 243.21875 173.761719 243.65625 174.429688 244.074219 174.964844 C 244.484375 175.496094 245.25 176.058594 246.007812 176.757812 C 243.082031 169.78125 239.449219 163.175781 235.1875 157.035156 C 235.09375 157.167969 234.9375 157.335938 234.9375 156.945312 C 234.132812 156.878906 234.730469 156.824219 233.980469 156.621094 L 233.820312 156.460938 L 232.53125 156.460938 C 232.273438 157.546875 232.214844 157.136719 232.851562 157.855469 L 233.003906 158.078125 L 233.003906 158.398438 L 232.851562 158.582031 C 232.222656 158.835938 231.539062 158.386719 230.816406 158.785156 C 230.253906 159.101562 229.84375 159.941406 230.101562 160.5 Z M 221.375 153.878906 C 221.375 151.707031 221.113281 152.910156 220.777344 151.890625 C 220.421875 150.828125 220.804688 149.25 218.785156 149.191406 L 218.617188 149.039062 L 218.464844 148.871094 C 217.285156 148.898438 217.367188 149.335938 217.8125 150.003906 C 216.453125 150.003906 217.292969 149.761719 216.359375 149.515625 C 216.113281 149.886719 216.164062 149.691406 216.035156 150.152344 L 216.195312 150.332031 L 216.363281 150.488281 C 216.441406 151.503906 216.738281 151.136719 217.019531 151.933594 C 217.300781 152.734375 216.980469 153.082031 217.082031 153.664062 C 217.175781 154.230469 217.679688 154.605469 218.167969 154.652344 C 218.945312 154.71875 218.386719 154.339844 220.078125 154.367188 L 220.402344 154.367188 C 221.148438 154.292969 220.847656 154.230469 221.375 153.878906 Z M 223.3125 153.714844 L 223.3125 154.414062 C 223.476562 154.609375 223.398438 154.140625 223.441406 154.703125 C 223.488281 155.359375 223.523438 154.828125 223.3125 155.046875 L 223.3125 156.445312 L 223.464844 156.621094 C 223.605469 157.09375 223.554688 156.898438 223.800781 157.285156 L 223.949219 157.445312 L 224.117188 157.589844 L 224.285156 157.753906 C 225.074219 158.175781 225.265625 158.195312 226.105469 158.117188 C 227.105469 158.03125 227.074219 158.382812 228.164062 158.414062 L 228.355469 158.5625 L 228.488281 158.566406 L 228.644531 158.71875 C 229.574219 158.71875 229.9375 158.460938 229.617188 157.742188 L 229.464844 157.59375 C 229.410156 155.457031 228.710938 156.109375 228.0625 155.109375 C 227.84375 154.773438 227.675781 154.199219 227.464844 153.765625 C 227.183594 153.199219 227.011719 152.886719 226.707031 152.414062 L 226.554688 152.265625 C 225.523438 150.4375 223.941406 149.890625 223.507812 148.511719 C 223.25 147.691406 223.359375 147.34375 222.503906 147.078125 L 222.355469 146.933594 C 220.601562 146.894531 222.226562 145.890625 221.207031 145.148438 L 221.007812 144.992188 C 220.421875 144.992188 220.359375 145.054688 219.917969 145.15625 C 219.804688 145.636719 219.757812 145.65625 219.757812 146.296875 L 219.910156 146.449219 L 219.925781 146.769531 L 219.757812 147.054688 L 219.757812 147.691406 L 219.910156 147.902344 C 220.46875 148.699219 220.46875 148.082031 221.050781 148.839844 L 221.195312 149.03125 C 221.882812 149.976562 221.261719 150.257812 222.054688 150.773438 C 222.605469 151.125 222.589844 150.800781 223.042969 151.242188 C 223.292969 151.492188 223.152344 151.601562 223.636719 151.953125 L 223.78125 152.101562 C 224.289062 152.367188 224.121094 152.46875 224.121094 153.230469 C 223.800781 153.445312 223.671875 153.523438 223.3125 153.714844 Z M 158.160156 125.449219 C 158.640625 126.191406 159.660156 126.726562 160.417969 127.226562 L 160.589844 127.390625 C 161.21875 127.824219 161.28125 128.078125 161.714844 128.65625 L 161.875 128.84375 C 162.035156 129.441406 162.039062 129.054688 162.199219 129.648438 L 162.363281 129.816406 L 162.359375 129.921875 C 162.597656 129.921875 162.523438 129.867188 162.523438 130.136719 L 162.84375 130.78125 L 163.007812 130.945312 C 163.71875 132.007812 164.535156 132.925781 165.621094 133.660156 C 166.484375 134.242188 168.171875 135.277344 169.472656 135.300781 L 169.816406 135.464844 L 170.445312 135.433594 L 170.722656 135.628906 L 172.867188 135.628906 L 173.191406 135.472656 L 173.878906 135.464844 C 174.152344 135.242188 175.054688 135.183594 175.277344 135.464844 L 175.78125 135.464844 L 175.941406 135.628906 C 176.644531 135.789062 176.820312 136.066406 177.277344 136.550781 C 177.683594 136.984375 177.875 137.429688 178.359375 137.734375 C 179.210938 138.269531 180.675781 138.359375 181.4375 136.921875 L 181.597656 136.757812 C 182.09375 134.628906 182.191406 133.355469 181.113281 131.75 L 180.953125 131.589844 L 180.960938 131.425781 L 181.113281 131.277344 C 181.839844 131.242188 181.925781 131.207031 182.253906 130.78125 L 182.410156 130.597656 C 182.585938 129.882812 182.59375 130.238281 182.410156 129.527344 C 182.175781 129.527344 182.246094 129.582031 182.246094 129.328125 C 181.992188 128.796875 182.085938 128.304688 182.078125 127.554688 L 182.246094 127.378906 L 182.894531 126.746094 L 183.054688 126.585938 L 183.144531 126.585938 C 183.144531 126.339844 183.09375 126.417969 183.375 126.417969 C 184 126.371094 184.15625 126.273438 184.996094 126.261719 C 185.832031 126.25 185.910156 126.117188 186.578125 126.097656 C 186.578125 125.871094 186.527344 125.9375 186.773438 125.9375 C 188.21875 125.601562 189.214844 124.363281 189.847656 123.191406 L 190.007812 123.035156 C 190.308594 122.765625 190.386719 122.601562 190.90625 122.546875 C 191.042969 122.476562 190.925781 122.492188 191.296875 122.402344 C 191.351562 122.390625 191.535156 122.394531 191.621094 122.394531 C 192.78125 122.34375 192.921875 121.613281 193.339844 121.199219 C 179.832031 114.65625 164.761719 110.835938 148.832031 110.453125 L 149.238281 110.597656 L 149.589844 110.597656 L 149.75 110.753906 C 150.332031 110.808594 150.519531 110.957031 151.042969 111.082031 C 151.324219 111.082031 151.273438 110.996094 151.273438 111.238281 L 151.527344 111.238281 L 151.6875 111.402344 C 152.398438 111.570312 153.273438 112.105469 153.816406 112.507812 C 155.535156 113.777344 156.484375 116.464844 159.773438 116.390625 L 160.046875 116.570312 C 160.402344 116.625 160.347656 116.597656 160.582031 116.734375 L 160.761719 116.894531 L 160.929688 117.371094 L 160.550781 117.378906 C 160.222656 117.609375 159.996094 117.671875 159.648438 117.378906 C 158.378906 117.378906 157.191406 116.925781 156.097656 117.539062 L 155.894531 117.699219 C 155.667969 118.039062 155.496094 118.144531 155.566406 118.808594 C 155.609375 119.214844 155.796875 119.554688 156.105469 119.753906 C 156.949219 120.300781 157.523438 119.660156 158.496094 119.640625 L 158.800781 119.460938 L 159.527344 119.476562 C 159.773438 119.246094 159.832031 119.300781 160.253906 119.296875 C 160.714844 119.289062 160.863281 119.238281 161.054688 119.476562 L 161.222656 119.640625 L 161.066406 119.796875 L 160.683594 119.800781 L 160.257812 119.984375 C 159.195312 120.007812 158.050781 120.972656 157.832031 121.902344 L 157.671875 122.058594 L 157.671875 122.222656 C 157.671875 122.492188 157.746094 122.433594 157.507812 122.433594 L 157.507812 124.328125 L 157.664062 124.484375 C 157.769531 124.902344 157.816406 124.957031 157.992188 125.277344 Z M 145.753906 134.34375 C 145.507812 134.273438 145.355469 134.363281 145.546875 134.175781 C 145.742188 133.980469 146.136719 134.449219 145.753906 134.34375 Z M 134.046875 127.230469 L 133.425781 127.875 L 133.257812 128.027344 C 132.8125 128.339844 132.851562 128.523438 132.335938 128.683594 L 131.964844 128.832031 C 131.214844 128.917969 131.171875 129.203125 131.15625 129.976562 C 131.417969 130.25 131.503906 130.351562 131.964844 130.460938 C 131.84375 130.964844 131.984375 130.707031 131.589844 130.945312 L 131.15625 131.117188 L 130.308594 131.105469 L 130.023438 131.265625 C 129.011719 131.265625 129.308594 131.417969 128.5625 131.589844 L 128.414062 131.589844 C 127.664062 131.53125 127.835938 131.320312 127.257812 131.289062 C 126.695312 131.257812 126.707031 131.460938 126.136719 131.589844 L 125.980469 131.742188 C 125.375 131.902344 125.296875 132.09375 124.6875 132.238281 C 124.6875 133.769531 125.429688 133.3125 126.839844 133.492188 C 128.214844 133.667969 128.511719 132.949219 129.378906 132.722656 L 129.539062 132.570312 L 129.824219 132.558594 L 130.023438 132.414062 C 130.917969 132.300781 130.371094 132.363281 131.316406 132.40625 L 131.46875 132.558594 C 132.761719 133.15625 131.644531 132.398438 134.238281 133.84375 C 135.226562 134.390625 134.566406 134.53125 135.195312 135.328125 L 135.375 135.464844 L 137.785156 135.472656 L 137.9375 135.628906 L 138.105469 135.78125 L 138.25 135.949219 C 138.433594 136.507812 138.359375 136.445312 138.914062 136.597656 L 139.726562 136.597656 L 140.695312 136.589844 L 140.984375 136.757812 C 141.800781 136.953125 141.15625 137.066406 142.3125 137.089844 L 142.5 137.242188 L 142.796875 137.410156 L 142.964844 137.566406 C 143.328125 137.746094 143.664062 137.8125 143.871094 137.328125 C 144.140625 136.695312 143.71875 136.5 143.433594 136.285156 C 142.722656 135.753906 142.335938 135.40625 141.34375 135.128906 L 141.167969 134.984375 C 140.707031 134.96875 140.5625 134.953125 140.222656 134.808594 C 139.8125 134.636719 139.683594 134.503906 139.5625 134.175781 L 140.371094 134.191406 L 140.96875 134.335938 L 141.503906 134.34375 L 141.664062 134.496094 C 142.347656 134.554688 142.4375 134.757812 143.121094 134.828125 L 143.273438 134.984375 C 143.621094 135.058594 143.929688 135.113281 144.339844 135.214844 C 144.886719 135.359375 144.914062 135.449219 145.546875 135.464844 C 145.890625 134.949219 145.808594 135.355469 145.867188 134.660156 C 146.382812 135.003906 145.980469 134.925781 146.675781 134.984375 C 146.929688 133.890625 146.746094 133.664062 145.867188 133.207031 L 145.695312 133.050781 L 145.550781 132.875 L 145.394531 132.722656 C 144.960938 132.441406 145.066406 132.355469 144.503906 132.144531 C 144.089844 131.988281 143.816406 131.980469 143.390625 131.804688 C 142.515625 131.441406 142.171875 131.085938 141.503906 130.609375 L 141.351562 130.460938 C 140.8125 130.320312 141.023438 130.402344 140.695312 130.042969 L 140.542969 129.816406 C 140.667969 129.203125 140.617188 129.273438 141.015625 129.046875 L 141.167969 129.652344 C 141.359375 129.859375 140.902344 129.828125 141.503906 129.785156 C 141.851562 129.761719 141.640625 129.796875 141.832031 129.652344 C 141.832031 129.503906 141.824219 129.3125 141.84375 129.167969 C 141.945312 128.480469 141.839844 129.082031 141.988281 128.785156 L 141.988281 128.519531 C 142.480469 128.636719 142.46875 128.726562 142.957031 128.859375 L 143.253906 129.007812 C 143.996094 129.363281 143.957031 129.472656 145.0625 129.5 L 145.210938 129.652344 L 145.214844 129.816406 L 145.214844 129.976562 C 145.441406 130.757812 145.597656 130.601562 146.515625 130.636719 L 146.683594 130.78125 C 147.03125 131.164062 147.074219 131.25 147.808594 131.265625 C 148.058594 130.746094 147.863281 130.59375 148.105469 130.136719 C 148.105469 130.136719 148.46875 129.589844 148.46875 130.136719 L 148.777344 130.148438 L 149.265625 130.148438 C 150.550781 130 151.753906 127.757812 150.128906 127.796875 C 148.492188 127.835938 149.402344 127.574219 148.359375 127.324219 C 147.167969 127.035156 148.765625 127.683594 146.351562 127.058594 L 146.199219 126.894531 L 146.035156 126.75 C 145.792969 126.75 145.847656 126.8125 145.847656 126.585938 L 145.546875 126.410156 L 145.394531 126.257812 C 144.792969 126.128906 143.660156 125.949219 142.957031 125.914062 L 142.78125 125.777344 C 141.65625 125.144531 142.476562 125.449219 141.003906 125.296875 C 139.867188 125.175781 140.515625 124.742188 140.699219 124 L 140.855469 123.835938 C 140.9375 122.855469 141.296875 123.199219 141.832031 122.867188 L 141.832031 122.546875 L 141.824219 122.378906 L 141.625 122.222656 L 141.34375 122.207031 L 141.191406 122.058594 L 139.199219 122.222656 L 138.914062 122.378906 L 138.570312 122.296875 C 138.917969 121.660156 138.675781 121.152344 137.882812 121.339844 C 136.972656 121.550781 138.617188 121.792969 136.257812 121.164062 C 135.082031 120.851562 135.554688 120.613281 134.898438 120.25 C 134.152344 119.84375 133.855469 120.382812 133.109375 120.445312 C 133.082031 120.476562 132.734375 120.988281 132.734375 120.445312 L 132.347656 120.445312 C 132.3125 120.46875 132.269531 120.503906 132.242188 120.519531 L 132.117188 120.570312 C 132.007812 120.613281 131.945312 120.601562 131.800781 120.601562 L 131.15625 120.601562 L 130.828125 120.445312 L 130.347656 120.445312 L 130.347656 119.960938 C 130.863281 119.949219 131.277344 119.988281 131.136719 119.367188 C 131.035156 118.929688 130.605469 118.898438 130.1875 118.660156 L 130.035156 118.511719 C 129.359375 118.511719 129.410156 118.546875 128.914062 118.667969 L 128.730469 118.824219 C 127.738281 118.863281 128.097656 119.128906 127.128906 119.152344 L 126.953125 119.3125 C 125.714844 119.433594 126.226562 120.441406 124.851562 120.4375 L 124.699219 120.285156 C 123.882812 119.242188 123.128906 120.105469 122.195312 120.285156 C 122.117188 120.425781 121.902344 120.742188 121.902344 120.285156 C 121.523438 119.507812 122.492188 118.527344 121.292969 118.175781 L 120.644531 118.175781 C 120.082031 118.34375 120.289062 118.308594 119.917969 118.667969 C 119.792969 118.738281 119.828125 118.753906 119.578125 118.769531 C 119.367188 118.78125 119.398438 118.871094 119.398438 118.667969 L 119.03125 118.667969 L 118.871094 118.511719 C 118.230469 118.511719 118.214844 118.558594 117.738281 118.667969 L 117.574219 118.824219 C 116.652344 119.335938 117.109375 119.105469 116.601562 119.957031 C 116.308594 120.4375 115.957031 120.609375 115.632812 121.09375 C 115.75 121.519531 115.621094 121.226562 115.796875 121.578125 L 115.945312 121.75 L 116.109375 121.902344 C 116.300781 122.136719 116.28125 121.53125 116.28125 122.386719 C 116.183594 122.433594 115.753906 122.804688 115.3125 122.566406 C 115.28125 122.542969 114.757812 122.183594 115.3125 122.183594 C 115.25 121.898438 115.265625 121.941406 115.148438 121.730469 L 114.953125 121.578125 C 113.117188 121.410156 115.457031 118.101562 113.160156 119.414062 C 113.039062 119.488281 113.015625 119.710938 111.910156 119.800781 L 111.753906 119.953125 C 110.925781 120.160156 110.664062 119.914062 110.445312 120.609375 L 110.296875 120.773438 C 109.808594 121.425781 109.894531 120.746094 109.636719 121.578125 L 109.492188 121.722656 C 109.203125 122.179688 109.042969 122.273438 109.328125 122.867188 L 109.472656 123.03125 C 109.707031 123.15625 109.660156 123.132812 109.984375 123.191406 L 110.136719 123.042969 L 110.785156 123.042969 L 110.996094 123.191406 L 111.761719 123.191406 L 111.917969 123.042969 L 112.402344 123.027344 L 112.261719 123.351562 L 111.917969 123.5 L 111.753906 123.503906 L 111.152344 123.351562 C 108.988281 123.351562 109.78125 124.679688 110.574219 124.613281 L 113.207031 124.167969 L 113.417969 124.324219 L 114.445312 124.324219 L 114.664062 124.167969 L 114.988281 124.167969 L 115.195312 124.324219 L 115.703125 124.324219 L 115.957031 124.132812 L 116.925781 124.167969 L 117.097656 124.324219 L 117.746094 124.324219 L 117.898438 124.171875 C 118.71875 124.152344 119.785156 124.214844 120.355469 124.035156 C 121.335938 123.71875 121.085938 123.285156 122.0625 123.03125 L 123.210938 123.03125 L 123.394531 122.878906 L 124.332031 122.027344 C 124.554688 122.765625 124.96875 122.644531 125.65625 122.867188 C 126.484375 123.140625 126.296875 123.480469 127.273438 123.523438 C 127.859375 123.535156 127.589844 123.476562 127.894531 123.679688 C 128.390625 123.710938 128.960938 124.246094 130.1875 124.808594 C 130.5625 124.980469 130.683594 125.105469 130.996094 125.285156 C 132.53125 126.179688 132.558594 125.375 133.90625 127.023438 Z M 125.335938 188.644531 C 125.363281 187.234375 125.816406 185.847656 126.296875 184.886719 L 126.46875 184.734375 L 126.789062 184.402344 C 127.117188 184.246094 127.367188 184.171875 127.765625 184.078125 L 127.921875 183.921875 C 129.023438 183.152344 128.679688 182.839844 129.339844 181.777344 C 129.878906 180.921875 130.355469 180.570312 131.15625 180.039062 L 131.316406 179.878906 C 132.472656 179.09375 133.449219 178.132812 134.226562 176.972656 L 134.390625 176.800781 C 134.984375 175.714844 135.472656 174.746094 136.492188 174.066406 L 136.652344 173.902344 C 137.222656 173.601562 138.164062 173 138.914062 172.9375 L 139.078125 172.773438 L 139.441406 172.773438 L 139.726562 172.589844 C 140.953125 172.65625 141.839844 172.507812 142.636719 172.125 L 142.796875 171.96875 C 143.527344 171.773438 143.800781 171.234375 144.734375 171.160156 L 144.898438 170.992188 L 145.050781 170.996094 L 145.222656 170.835938 C 146.195312 170.753906 145.703125 170.753906 146.675781 170.835938 C 146.507812 171.464844 146.054688 171.636719 145.425781 171.804688 C 145.425781 172.03125 145.476562 171.960938 145.222656 171.960938 C 144.234375 172.203125 143.308594 172.6875 143.28125 173.898438 L 143.445312 174.066406 C 143.703125 175.054688 144.960938 175.164062 145.554688 174.398438 C 145.792969 174.085938 145.921875 173.757812 146.226562 173.453125 C 146.628906 173.046875 146.84375 173.027344 147.332031 172.773438 L 147.484375 172.621094 C 148.066406 172.472656 147.949219 172.34375 148.601562 172.289062 C 148.601562 172.058594 148.546875 172.121094 148.777344 172.121094 L 149.234375 172.125 L 149.589844 171.96875 C 150.726562 171.96875 151.121094 171.851562 152.011719 171.644531 C 152.125 171.164062 152.175781 171.148438 152.175781 170.511719 L 151.6875 170.1875 L 151.527344 170.027344 L 150.761719 170.027344 C 150.359375 170.25 150.109375 170.253906 149.613281 170.144531 L 149.367188 170.027344 C 148.183594 170.027344 147.085938 169.25 146.605469 168.484375 C 146.273438 167.960938 146.253906 167.5625 145.902344 167.089844 C 145.476562 166.515625 145.171875 166.46875 144.574219 166.148438 L 144.417969 165.992188 L 144.921875 165.667969 C 145.078125 165.566406 144.941406 165.59375 145.238281 165.523438 C 145.359375 165.496094 145.578125 165.511719 145.707031 165.511719 C 146.453125 165.441406 146.148438 165.375 146.675781 165.023438 C 146.675781 164.734375 146.707031 164.171875 146.652344 163.921875 C 146.523438 163.371094 146.480469 163.484375 146.027344 163.246094 C 145.332031 163.234375 145.710938 163.226562 145.554688 163.082031 L 144.789062 163.082031 C 144.679688 163.140625 144.675781 163.1875 144.414062 163.234375 C 144.355469 163.246094 144.164062 163.253906 144.101562 163.253906 C 143.933594 163.265625 143.628906 163.246094 143.445312 163.246094 C 142.367188 163.246094 142.195312 163.496094 141.367188 163.566406 L 141.179688 163.730469 C 140.253906 163.808594 138.796875 164.632812 138.230469 165.140625 C 137.496094 165.796875 136.875 166.882812 135.84375 167.121094 L 135.84375 166.636719 L 136.003906 166.457031 C 136.402344 165.902344 136.890625 165.453125 137.492188 165.054688 C 137.875 164.796875 138.855469 164.03125 139.078125 163.730469 L 139.234375 163.554688 L 139.402344 163.410156 C 140.214844 162.851562 140.871094 162.371094 141.992188 162.113281 L 142.148438 161.957031 C 142.828125 161.894531 143.285156 161.625 143.910156 161.46875 L 144.089844 161.308594 C 144.414062 161.152344 144.726562 161.023438 145.171875 160.984375 C 145.171875 160.746094 145.121094 160.820312 145.382812 160.820312 C 146.125 160.804688 146.796875 160.660156 147.808594 160.65625 C 148.878906 160.65625 149.378906 160.8125 150.234375 160.828125 L 150.386719 160.984375 C 151.167969 160.984375 151.097656 161.121094 151.699219 161.136719 C 152.382812 161.15625 152.347656 160.984375 153.175781 160.984375 L 153.464844 160.820312 C 154.214844 160.761719 155.0625 160.1875 155.574219 159.851562 L 155.730469 159.699219 C 156.1875 159.449219 156.453125 159.222656 157.113281 159.207031 C 157.113281 158.960938 157.0625 159.042969 157.347656 159.042969 C 158.964844 159.042969 159.605469 159.101562 160.558594 158.398438 C 160.558594 158.160156 160.496094 158.21875 160.730469 158.21875 L 160.910156 158.082031 L 161.066406 157.910156 C 161.75 156.910156 161.886719 156.527344 161.878906 154.847656 C 161.871094 154.222656 161.90625 153.523438 161.878906 152.90625 C 161.839844 152.121094 161.609375 151.84375 161.550781 151.136719 L 161.382812 150.96875 L 161.390625 150.847656 L 161.234375 150.648438 L 160.902344 150.003906 L 160.742188 149.835938 L 160.566406 149.675781 L 160.09375 149.199219 L 159.917969 149.03125 C 159.558594 148.777344 159.292969 148.515625 158.800781 148.390625 L 158.636719 148.226562 C 157.085938 147.863281 156.539062 147.816406 154.957031 148.226562 C 154.957031 148.453125 155.007812 148.390625 154.761719 148.390625 C 153.515625 148.488281 152.527344 148.847656 151.492188 148.09375 C 150.523438 147.386719 150.5625 146.753906 150.234375 145.523438 C 150.003906 145.523438 150.074219 145.574219 150.074219 145.320312 C 149.882812 144.964844 149.804688 144.832031 149.589844 144.511719 L 149.402344 144.367188 L 149.253906 144.207031 L 149.097656 144.027344 L 148.617188 143.710938 L 148.453125 143.539062 C 147.867188 143.109375 148.289062 143.460938 148.054688 142.652344 C 147.898438 142.125 147.820312 142.007812 147.484375 141.769531 L 147.320312 141.601562 C 146.390625 141.148438 145.425781 141.460938 144.964844 142.152344 C 143.894531 143.765625 142.6875 144.496094 140.46875 143.929688 C 139.332031 143.644531 138.941406 143.445312 138.429688 142.613281 C 138.203125 142.613281 138.269531 142.664062 138.269531 142.410156 L 138.269531 142.230469 C 138.046875 141.945312 138.175781 142.320312 138.105469 141.769531 C 138.089844 141.644531 138.105469 141.269531 138.105469 141.117188 C 137.761719 139.640625 136.695312 139.46875 135.519531 138.859375 L 135.355469 138.695312 C 134.835938 138.34375 134.617188 137.914062 133.90625 137.730469 L 133.738281 137.566406 C 133.226562 137.316406 132.566406 137.074219 131.800781 137.085938 L 130.347656 137.085938 C 129.554688 137.074219 129.660156 137.21875 129.042969 137.234375 C 128.3125 137.257812 128.53125 137.09375 127.761719 137.085938 C 127.328125 137.085938 126.703125 137.191406 126.503906 136.921875 C 125.8125 136.773438 125.917969 136.515625 125.277344 136.6875 C 125.242188 136.699219 124.757812 136.976562 124.753906 136.980469 C 124.417969 137.34375 124.59375 136.738281 124.527344 137.566406 L 124.527344 138.050781 C 124.574219 138.613281 124.648438 138.761719 124.691406 139.5 C 124.734375 140.21875 124.894531 140.480469 124.980469 141 C 125.246094 142.65625 124.460938 142.261719 123.882812 143.378906 L 123.71875 143.542969 C 123.71875 144.9375 123.6875 145.09375 124.621094 145.707031 C 125.257812 146.128906 125.859375 146.492188 126.082031 147.324219 C 126.582031 149.183594 124.746094 150.585938 123.71875 151.132812 L 123.554688 151.296875 C 122.410156 151.898438 121.457031 152.429688 121.621094 154.351562 C 121.683594 155.125 121.921875 155.578125 121.949219 156.460938 C 121.984375 157.5625 121.8125 157.902344 121.613281 158.71875 L 121.453125 158.878906 C 120.675781 160.058594 119.261719 160.371094 118.382812 159.042969 L 118.222656 158.882812 C 117.800781 158.105469 117.671875 157.675781 117.441406 156.757812 C 117.296875 156.183594 117.101562 154.785156 117.089844 154.164062 L 116.914062 153.878906 C 116.785156 153.214844 116.183594 152.273438 115.742188 151.832031 C 115.558594 151.648438 115.011719 151.265625 114.820312 151.136719 C 114.453125 150.898438 114.195312 150.6875 113.695312 150.652344 L 113.527344 150.488281 C 112.75 150.488281 112.832031 150.347656 112.230469 150.332031 C 111.539062 150.3125 111.597656 150.488281 110.777344 150.488281 L 110.625 150.644531 L 110.246094 150.648438 C 109.917969 150.925781 109.246094 150.898438 108.851562 150.648438 L 108.035156 150.652344 L 107.578125 150.488281 C 106.421875 150.488281 106.011719 150.160156 104.964844 150.160156 L 104.660156 150.003906 C 103.929688 149.945312 102.4375 149.324219 101.890625 149.027344 L 101.734375 148.871094 C 101.195312 148.515625 100.027344 147.011719 99.738281 146.339844 C 99.5 145.792969 99.300781 145.226562 99.289062 144.507812 C 99.277344 143.496094 99.558594 143.230469 99.628906 142.410156 L 99.789062 142.230469 L 99.789062 142.085938 L 99.953125 141.921875 C 100.066406 141.707031 100.148438 141.5 100.28125 141.289062 C 100.476562 140.976562 100.558594 140.941406 100.742188 140.632812 C 100.742188 140.398438 100.683594 140.457031 100.921875 140.457031 C 101.191406 140.082031 101.277344 140.046875 101.40625 139.503906 C 101.40625 139.261719 101.34375 139.3125 101.570312 139.3125 L 101.570312 139.179688 L 101.730469 139.023438 C 101.867188 138.4375 101.921875 138.367188 102.34375 138.019531 C 102.632812 137.777344 102.996094 137.5 103.351562 137.40625 L 103.507812 137.246094 L 103.644531 137.242188 L 103.832031 137.082031 C 104.625 137.015625 104.617188 136.757812 105.542969 136.757812 C 105.542969 136.511719 105.492188 136.59375 105.773438 136.59375 C 106.585938 136.582031 107 136.277344 107.707031 136.113281 L 107.875 135.957031 C 108.746094 135.738281 110.527344 134.636719 110.945312 134.015625 C 110.832031 133.539062 110.96875 133.777344 110.625 133.53125 L 110.296875 133.53125 L 109.972656 133.527344 L 110.296875 133.367188 C 111.761719 132.097656 112.121094 130.757812 113.121094 130.5625 C 113.957031 130.40625 114.265625 131.175781 115.234375 130.886719 C 115.8125 130.710938 115.601562 130.542969 116.1875 130.367188 C 116.605469 130.238281 117.117188 130.296875 117.570312 130.296875 L 117.738281 130.136719 L 117.875 130.136719 L 118.0625 129.976562 C 118.378906 129.804688 118.355469 129.835938 118.652344 129.601562 C 119.070312 129.277344 118.75 129.332031 119.34375 129.167969 L 119.515625 129.007812 C 120.460938 128.78125 120.1875 127.75 119.613281 127.289062 C 119.011719 126.8125 118.582031 126.285156 118.0625 125.9375 L 117.871094 125.777344 L 117.574219 125.773438 C 117.3125 125.773438 117.363281 125.847656 117.363281 125.613281 L 116.472656 125.613281 L 116.28125 125.773438 C 115.648438 125.925781 115.613281 126.121094 114.960938 126.257812 L 114.664062 126.4375 C 112.980469 126.804688 114.851562 128.238281 112.675781 128.683594 L 112.402344 128.867188 C 111.214844 128.828125 111.394531 129.285156 110.136719 128.683594 C 110.609375 128.042969 110.851562 128.53125 110.953125 127.554688 L 110.953125 127.390625 C 110.851562 126.390625 109.992188 126.480469 109.300781 126.707031 C 108.542969 126.953125 108.4375 127.332031 107.710938 127.714844 L 107.390625 127.386719 L 107.21875 127.234375 L 107.066406 127.070312 C 106.660156 126.71875 106.402344 126.550781 105.617188 126.566406 C 104.910156 126.585938 104.5625 126.742188 104.179688 127.09375 C 103.183594 128.015625 103.921875 128.527344 102.371094 129.328125 L 102.214844 129.484375 L 101.570312 130.136719 L 101.414062 130.308594 L 101.246094 130.460938 C 100.972656 130.976562 100.789062 131.296875 100.273438 131.589844 C 99.480469 132.042969 99.363281 131.816406 98.496094 131.757812 C 98.253906 131.757812 98.308594 131.820312 98.308594 131.589844 C 97.449219 131.375 97.566406 131.265625 96.394531 131.265625 L 95.910156 131.265625 C 93.921875 131.265625 93.796875 131.957031 92.480469 132.238281 L 92.191406 132.414062 C 91.511719 132.398438 90.980469 132.636719 90.390625 132.703125 C 89.734375 132.769531 88.828125 132.722656 88.144531 132.722656 L 87.984375 132.878906 L 87.386719 132.882812 L 87.015625 133.042969 C 85.507812 133.167969 84.78125 134.191406 83.457031 134.496094 L 83.296875 134.652344 C 82.550781 134.839844 82.191406 135.125 81.308594 135.144531 L 81.035156 135.332031 C 80.304688 135.300781 80.195312 135.480469 79.589844 135.628906 L 79.417969 135.789062 L 78.992188 135.789062 L 78.773438 135.945312 C 78.019531 135.976562 77.6875 136.210938 76.984375 136.273438 C 76.867188 136.285156 76.125 136.289062 76.027344 136.273438 L 75.984375 136.269531 C 66.746094 144.148438 58.847656 153.554688 52.691406 164.101562 C 52.914062 164.199219 53.148438 164.429688 53.386719 164.824219 L 53.539062 165.023438 C 53.660156 165.476562 53.769531 165.867188 53.875 166.320312 L 54.027344 166.476562 C 54.105469 167.222656 54.335938 167.238281 54.519531 167.859375 C 54.765625 167.859375 54.679688 167.804688 54.679688 168.089844 L 55.488281 169.671875 C 55.71875 169.671875 55.652344 169.621094 55.652344 169.867188 C 55.8125 170.5625 56.222656 171.113281 56.296875 171.925781 L 56.453125 172.125 C 56.5 173.417969 56.945312 174.277344 56.765625 175.984375 C 56.714844 176.4375 56.542969 177.210938 56.398438 177.714844 C 56.179688 178.46875 55.878906 178.667969 55.808594 179.394531 L 55.652344 179.550781 C 55.59375 180.257812 55.375 180.3125 55.34375 181.011719 L 55.164062 181.449219 L 55.195312 181.816406 L 55.003906 182.082031 C 55.003906 182.894531 54.878906 182.941406 54.84375 183.757812 C 54.808594 184.53125 54.679688 184.769531 54.679688 185.371094 L 55.003906 188.644531 L 55.199219 188.925781 L 55.164062 189.289062 L 55.335938 189.730469 C 55.378906 190.425781 55.59375 190.488281 55.652344 191.1875 L 55.808594 191.347656 C 55.871094 192.039062 56.21875 192.417969 56.296875 193.238281 L 56.453125 193.445312 C 56.460938 193.992188 56.539062 194.199219 56.597656 194.613281 C 56.671875 195.160156 56.667969 195.5 56.691406 195.726562 C 56.792969 196.652344 57.039062 197.007812 57.753906 197.484375 L 57.925781 197.648438 C 59.140625 197.933594 60.871094 198.890625 60.984375 200.210938 C 61.070312 200.339844 61.0625 200.296875 61.136719 200.558594 C 61.148438 200.609375 61.144531 200.785156 61.144531 200.875 C 61.15625 202.253906 61.3125 203.15625 61.742188 204.160156 C 62.039062 204.863281 62.121094 204.78125 62.554688 205.285156 C 62.90625 205.691406 63.171875 206.074219 63.414062 206.527344 L 63.574219 206.691406 C 63.949219 211.1875 63.726562 209.074219 65.398438 210.679688 C 65.910156 211.171875 65.996094 211.238281 66.324219 211.863281 L 66.480469 212.019531 C 66.609375 213.417969 67.132812 214.535156 67.90625 215.605469 L 68.261719 216.058594 L 68.433594 216.214844 L 69.234375 217.03125 L 69.390625 217.183594 C 69.632812 217.304688 69.527344 217.355469 69.832031 217.265625 C 70.519531 217.054688 70.027344 217.324219 70.203125 216.863281 L 70.203125 216.542969 C 69.914062 216.109375 69.519531 215.679688 69.234375 215.242188 L 69.082031 215.085938 L 69.070312 214.925781 L 68.910156 214.765625 C 68.746094 214.425781 68.628906 214.128906 68.585938 213.65625 L 68.425781 213.472656 L 68.425781 212.644531 L 68.261719 212.179688 C 68.210938 211.597656 68.058594 211.410156 67.9375 210.886719 L 67.777344 210.726562 L 67.777344 210.605469 L 67.621094 210.402344 C 67.394531 209.476562 66.367188 207.960938 65.675781 207.496094 L 65.515625 207.335938 L 65.351562 207.183594 C 65.117188 207.183594 65.175781 207.242188 65.175781 207.011719 C 64.90625 206.570312 64.445312 205.941406 64.382812 205.289062 C 64.140625 205.289062 64.21875 205.34375 64.21875 205.074219 C 64.210938 204.480469 64.015625 203.882812 63.964844 203.238281 C 63.945312 202.957031 63.949219 202.753906 64.035156 202.476562 C 64.210938 201.875 64.125 202 64.519531 201.84375 C 64.546875 201.8125 64.917969 201.261719 64.917969 201.84375 C 65.464844 202.019531 65.65625 202.5625 65.675781 203.265625 L 65.832031 203.457031 L 65.835938 203.765625 L 65.996094 203.945312 L 66.324219 205.03125 C 66.554688 205.03125 66.484375 204.976562 66.484375 205.234375 C 66.625 205.839844 67.300781 206.765625 67.617188 207.3125 C 67.84375 207.3125 67.78125 207.257812 67.78125 207.496094 C 68.183594 208.109375 68.261719 208.207031 68.789062 208.746094 C 69.066406 209.027344 69.582031 209.664062 69.777344 210.019531 C 70.699219 211.683594 69.308594 211.363281 71.496094 212.824219 L 71.65625 212.988281 L 71.820312 213.148438 L 72.789062 214.113281 L 72.953125 214.277344 L 73.128906 214.4375 C 73.46875 215 73.921875 215.492188 74.296875 216.164062 C 74.621094 216.746094 75.085938 217.5625 75.214844 218.207031 L 75.410156 218.476562 C 75.40625 219.175781 75.683594 219.492188 75.699219 220.25 L 75.863281 220.417969 C 75.863281 221.742188 76.464844 222.800781 77.113281 223.523438 C 77.710938 224.191406 78.761719 225.078125 79.742188 225.238281 L 80.035156 225.421875 C 80.378906 225.570312 80.988281 225.820312 81.359375 225.910156 L 81.539062 226.070312 C 82.011719 226.183594 82.003906 226.273438 82.488281 226.402344 L 82.679688 226.550781 C 83.265625 226.703125 83.339844 226.898438 83.945312 227.035156 L 84.109375 227.199219 L 86.207031 228.167969 L 86.371094 228.328125 C 86.738281 228.527344 87.035156 228.6875 87.363281 228.953125 C 87.796875 229.300781 87.75 229.363281 88.300781 229.628906 C 89.441406 230.171875 89.914062 229.882812 91.070312 229.621094 L 91.378906 229.464844 L 93 229.464844 C 93.277344 229.464844 93.226562 229.382812 93.226562 229.621094 L 93.96875 229.9375 L 94.132812 230.105469 L 94.296875 230.265625 L 94.46875 230.425781 C 94.742188 231.003906 94.917969 231.367188 95.265625 231.886719 L 95.421875 232.046875 L 95.601562 232.191406 L 95.757812 232.363281 L 95.902344 232.53125 C 96.375 232.839844 96.296875 232.917969 96.894531 233.160156 C 97.269531 233.308594 97.726562 233.460938 98.171875 233.503906 L 98.558594 233.660156 L 98.820312 233.621094 L 99.09375 233.824219 C 99.945312 233.839844 100.25 234.125 101.082031 234.144531 L 101.246094 234.308594 C 102.300781 234.394531 103.085938 235.066406 103.992188 235.277344 L 104.152344 235.4375 C 104.574219 235.714844 104.609375 235.707031 104.945312 236.101562 C 105.242188 236.449219 105.3125 236.511719 105.449219 237.003906 C 105.6875 237.003906 105.609375 236.949219 105.609375 237.214844 C 105.734375 237.753906 105.949219 238.046875 106.097656 238.65625 L 106.25 238.828125 C 106.324219 239.539062 106.492188 239.859375 106.847656 240.339844 C 107.199219 240.804688 107.4375 241.085938 108.035156 241.257812 L 108.207031 241.410156 L 108.359375 241.417969 L 108.519531 241.574219 C 108.851562 241.746094 108.90625 241.796875 109.328125 241.898438 L 109.488281 242.058594 C 110.371094 242.265625 110.875 242.804688 111.753906 243.039062 L 111.902344 243.1875 C 112.292969 243.386719 112.570312 243.5625 113.046875 243.671875 L 113.207031 243.835938 C 113.742188 243.960938 114.582031 244.414062 115.101562 244.691406 C 115.800781 245.066406 116.003906 245.730469 116.765625 245.933594 L 117.089844 245.933594 C 117.679688 245.777344 117.429688 245.761719 117.898438 245.449219 C 117.898438 244.136719 117.777344 243.335938 119.046875 243.191406 C 119.851562 243.101562 121.082031 243.535156 121.292969 244.3125 L 121.453125 244.480469 C 121.445312 245.035156 121.386719 245.28125 121.105469 245.585938 C 120.757812 245.960938 120.632812 245.863281 120.117188 246.054688 C 119.0625 246.441406 119.316406 247.035156 118.121094 247.066406 L 117.738281 247.226562 C 117.058594 247.40625 116.78125 247.832031 116.769531 248.683594 L 116.605469 248.84375 C 116.492188 249.316406 116.320312 249.59375 116.117188 249.972656 L 115.957031 250.132812 C 115.542969 250.753906 115.105469 250.988281 114.667969 251.75 C 114.347656 252.316406 113.832031 253.179688 113.898438 254.007812 L 113.695312 254.28125 L 113.695312 256.40625 L 113.859375 256.757812 L 113.898438 259.339844 L 113.695312 259.601562 L 113.695312 259.984375 C 113.695312 260.230469 113.761719 260.179688 113.53125 260.179688 C 113.4375 260.558594 113.371094 260.648438 113.207031 260.953125 L 113.046875 261.117188 C 112.574219 261.824219 111.957031 262.125 111.464844 262.925781 C 111.390625 263.046875 111.214844 263.371094 111.160156 263.425781 C 110.621094 264.011719 109.914062 263.472656 109.660156 264.507812 L 109.492188 264.679688 L 109.492188 265.292969 C 109.609375 265.472656 109.574219 265.296875 109.597656 265.601562 C 109.613281 265.839844 109.765625 265.796875 109.492188 265.796875 C 109.453125 267.496094 108.03125 267.589844 108.410156 268.960938 C 108.558594 269.503906 108.773438 269.628906 109.328125 269.675781 L 109.492188 269.835938 L 109.652344 269.839844 L 109.820312 269.988281 L 109.988281 270.160156 C 109.929688 271.253906 109.261719 271.382812 108.519531 271.773438 L 108.359375 271.9375 C 108.136719 272.265625 107.816406 272.605469 108.113281 273.296875 C 108.414062 274.007812 108.664062 273.367188 108.679688 274.523438 L 108.519531 274.675781 L 108.519531 275.324219 L 108.679688 275.492188 L 108.84375 275.660156 L 109 275.808594 C 109.4375 275.910156 109.472656 275.957031 109.816406 276.140625 L 109.992188 276.296875 C 110.8125 276.882812 111.625 277.402344 112.265625 278.207031 C 112.757812 278.828125 113.496094 280.132812 113.695312 280.984375 L 113.855469 281.140625 C 113.984375 281.699219 114.554688 282.753906 114.832031 283.238281 C 115.027344 283.570312 115.261719 283.886719 115.464844 284.21875 C 115.730469 284.660156 115.871094 284.804688 116.117188 285.183594 L 116.277344 285.34375 C 117.519531 287.15625 119.164062 288.777344 120.96875 290.03125 L 121.132812 290.183594 C 121.835938 290.660156 122.078125 290.890625 122.910156 291.308594 L 123.070312 291.476562 L 124.363281 292.125 C 124.648438 292.125 124.597656 292.042969 124.597656 292.285156 C 125.128906 292.445312 125.238281 292.632812 125.820312 292.773438 L 125.996094 292.933594 C 127.171875 293.21875 128.464844 294.972656 128.570312 296.375 C 128.910156 296.78125 128.730469 298.847656 128.730469 299.554688 L 128.628906 302.726562 C 128.625 302.703125 128.589844 302.804688 128.570312 302.84375 L 128.570312 303.589844 L 128.40625 303.757812 C 128.386719 304.582031 128.15625 304.617188 128.074219 305.367188 L 127.921875 305.519531 C 127.804688 306.03125 127.714844 305.992188 127.597656 306.496094 L 127.4375 306.660156 C 127.226562 307.09375 126.972656 307.804688 126.945312 308.433594 L 126.945312 310.210938 C 126.957031 311.015625 127.101562 311.023438 127.125 311.828125 C 127.148438 312.699219 126.953125 312.914062 126.972656 313.605469 L 126.789062 313.898438 C 126.585938 314.324219 126.425781 314.464844 126.292969 314.894531 L 126.144531 315.046875 C 126.007812 315.652344 125.882812 315.511719 125.816406 316.1875 L 125.65625 316.542969 L 125.652344 316.996094 L 125.496094 317.304688 L 125.496094 319.097656 L 125.652344 319.417969 L 125.65625 319.847656 L 125.824219 320.226562 C 125.9375 320.734375 126.09375 320.9375 126.144531 321.496094 L 126.304688 321.839844 C 126.304688 322.867188 126.480469 322.78125 126.339844 323.640625 C 126.261719 324.140625 126.15625 324.394531 126.050781 324.667969 C 129.414062 325.300781 132.832031 325.777344 136.300781 326.089844 C 136.21875 325.523438 136.117188 325.816406 136.328125 324.910156 C 136.328125 324.621094 136.242188 324.671875 136.492188 324.671875 C 137.335938 323.800781 138.207031 322.527344 139.847656 322.484375 L 140.210938 322.332031 C 140.988281 322.320312 141.082031 322.261719 141.578125 321.917969 C 142.191406 321.496094 142.148438 321.476562 142.476562 320.871094 L 142.636719 320.710938 L 142.789062 320.390625 L 142.960938 320.226562 L 143.121094 320.066406 L 143.28125 319.902344 L 144.03125 319.578125 C 144.03125 319.339844 143.980469 319.417969 144.253906 319.417969 L 144.5625 319.417969 C 144.683594 319.351562 144.640625 319.328125 144.90625 319.28125 L 145.941406 319.363281 C 145.960938 319.328125 146.011719 319.398438 146.046875 319.417969 L 146.351562 319.417969 C 146.621094 319.417969 146.570312 319.339844 146.570312 319.578125 L 147.96875 319.578125 L 148.132812 319.417969 C 149.289062 319.320312 149.78125 318.378906 150.328125 317.574219 C 150.859375 316.785156 151.804688 316.109375 152.804688 315.863281 L 152.984375 315.707031 C 153.472656 315.589844 153.457031 315.5 153.9375 315.378906 L 154.113281 315.21875 C 154.714844 315.058594 154.320312 315.054688 154.929688 314.894531 L 155.085938 314.742188 C 155.507812 314.507812 155.792969 314.3125 156.214844 314.089844 L 156.375 313.914062 C 158.007812 312.90625 159.84375 311.015625 160.902344 309.40625 L 161.058594 309.226562 L 161.226562 309.074219 C 161.46875 308.921875 161.621094 308.796875 161.90625 308.628906 C 162.25 308.429688 162.359375 308.433594 162.683594 308.273438 L 162.84375 308.113281 C 163.453125 307.949219 163.5 307.765625 163.664062 307.144531 L 163.816406 306.917969 L 163.8125 305.367188 L 163.976562 305.195312 C 164.023438 304.667969 164.109375 304.597656 164.296875 304.238281 L 164.460938 304.070312 L 165.109375 303.429688 L 165.269531 303.257812 L 165.582031 303.105469 L 165.753906 302.941406 L 165.886719 302.945312 L 166.078125 302.789062 C 166.621094 302.652344 166.863281 302.472656 167.535156 302.460938 L 167.695312 302.304688 L 168.039062 302.296875 L 168.34375 302.136719 C 169.03125 302.082031 169.105469 301.871094 169.796875 301.816406 L 169.957031 301.652344 C 170.621094 301.5 170.976562 301.191406 171.851562 301.167969 C 172.089844 301.042969 171.636719 301.148438 172.222656 301.023438 C 172.332031 301.003906 172.589844 301.011719 172.707031 301.011719 C 174.265625 300.992188 174.507812 300.851562 175.445312 300.199219 L 175.625 300.035156 L 175.78125 299.886719 L 175.929688 299.707031 L 176.101562 299.550781 C 176.402344 299.109375 176.695312 298.792969 176.742188 298.101562 C 176.742188 297.839844 176.671875 297.894531 176.910156 297.894531 C 177.003906 297.550781 177.09375 297.265625 177.234375 296.972656 C 177.234375 296.707031 177.160156 296.757812 177.394531 296.757812 C 177.710938 296.273438 177.925781 296.09375 178.203125 295.679688 L 178.367188 295.507812 C 178.589844 295.1875 178.792969 294.871094 179.011719 294.546875 C 179.011719 294.292969 178.945312 294.347656 179.171875 294.347656 C 179.472656 293.867188 180.164062 292.824219 180.304688 292.285156 C 180.304688 292.003906 180.222656 292.058594 180.46875 292.058594 C 180.59375 291.632812 180.679688 291.628906 180.792969 291.15625 C 180.792969 290.867188 180.707031 290.917969 180.953125 290.917969 L 180.957031 290.671875 L 181.113281 290.511719 C 181.238281 289.984375 181.390625 289.800781 181.4375 289.21875 L 181.597656 288.894531 C 181.660156 288.136719 181.90625 287.671875 181.941406 286.792969 C 181.941406 286.652344 181.929688 286.460938 181.949219 286.324219 C 181.992188 286.019531 181.996094 286.144531 182.085938 285.992188 L 182.078125 285.664062 L 182.246094 285.335938 C 182.339844 284.949219 182.417969 284.691406 182.570312 284.375 L 182.730469 284.199219 L 182.894531 283.886719 L 183.042969 283.714844 L 183.226562 283.566406 L 183.375 283.414062 C 184.152344 282.867188 184.441406 282.300781 185.382812 281.691406 C 186.558594 280.925781 186.605469 280.898438 187.261719 279.6875 L 187.417969 279.507812 C 187.59375 278.816406 187.890625 278.394531 187.902344 277.585938 C 187.902344 276.8125 187.902344 277.273438 188.066406 277.09375 L 188.066406 274.433594 C 187.820312 274.433594 187.902344 274.484375 187.902344 274.199219 L 187.746094 273.886719 L 187.578125 273.710938 L 187.417969 273.550781 L 187.246094 273.390625 C 187.042969 273.265625 187.082031 273.285156 186.773438 273.226562 C 186.378906 273.226562 185.875 273.324219 185.691406 273.066406 C 184.335938 273.039062 183.980469 272.59375 183.171875 271.980469 C 182.605469 271.554688 181.464844 270.851562 180.628906 270.828125 L 180.34375 270.640625 C 179.519531 270.628906 178.847656 270.347656 178.042969 270.3125 L 177.703125 270.160156 L 177.394531 270.160156 C 177.132812 270.160156 177.183594 270.234375 177.183594 270 C 176.386719 269.921875 174.546875 269.171875 173.890625 268.8125 C 172.996094 268.332031 171.917969 267.488281 170.929688 267.246094 C 170.660156 267.246094 170.707031 267.328125 170.707031 267.09375 L 169.636719 266.769531 C 169.378906 266.769531 169.429688 266.839844 169.429688 266.609375 L 169.148438 266.609375 C 168.875 266.609375 168.925781 266.6875 168.925781 266.445312 C 168.257812 266.378906 167.976562 266.128906 167.210938 266.136719 L 166.757812 265.960938 C 165.957031 265.945312 165.367188 265.785156 164.296875 265.800781 C 163.0625 265.820312 162.546875 266.046875 162.519531 264.828125 L 162.683594 264.660156 C 163.488281 263.027344 161.703125 263.125 161.550781 261.476562 L 161.398438 261.277344 L 161.390625 261.109375 L 161.222656 260.796875 C 160.867188 259.195312 159.285156 257.792969 157.992188 257.070312 L 157.832031 256.914062 C 157.453125 256.714844 157.410156 256.636719 156.863281 256.59375 L 156.699219 256.429688 C 155.5 256.335938 155.117188 255.929688 153.554688 256.195312 C 151.441406 256.558594 150.234375 256.191406 148.574219 254.539062 C 147.597656 253.566406 147.726562 253.042969 147 252.558594 L 146.824219 252.394531 C 146.402344 252.160156 146.140625 251.960938 145.546875 251.902344 C 145.398438 251.902344 145.207031 251.914062 145.0625 251.890625 C 144.371094 251.789062 144.980469 251.898438 144.679688 251.75 C 144.125 251.734375 143.820312 251.601562 143.445312 251.4375 L 143.277344 251.273438 L 143.121094 251.101562 C 142.859375 250.5625 142.777344 249.886719 142.253906 249.542969 C 142.011719 249.390625 140.722656 249.03125 140.371094 249 L 140.214844 248.839844 C 139.878906 248.621094 139.710938 248.46875 139.238281 248.351562 L 139.085938 248.195312 C 138.355469 248.195312 137.542969 248.132812 136.917969 248.296875 C 135.871094 248.574219 136.113281 248.601562 135.035156 248.359375 L 134.871094 248.195312 C 134.539062 247.972656 134.4375 247.90625 134.066406 247.714844 C 133.8125 247.714844 133.867188 247.785156 133.867188 247.550781 C 133.542969 247.460938 132.757812 247.261719 132.449219 247.265625 C 132 247.269531 131.550781 247.503906 130.992188 247.550781 C 130.828125 247.808594 130.988281 247.808594 130.824219 247.550781 C 130.085938 247.488281 130.089844 247.136719 129.542969 246.734375 C 129.121094 246.421875 128.621094 246.140625 127.914062 246.089844 C 126.371094 245.984375 125.679688 246.78125 125.167969 247.710938 L 125.011719 247.90625 L 125.011719 248.519531 L 124.851562 248.683594 L 124.851562 248.988281 L 125.015625 249.164062 L 125.011719 249.972656 C 124.636719 249.964844 124.269531 250.03125 123.789062 249.414062 C 123.570312 249.132812 123.652344 249.375 123.554688 248.945312 L 123.367188 248.683594 C 123.429688 247.738281 123.234375 247.488281 123.230469 246.582031 C 123.222656 245.632812 123.089844 245.191406 123.074219 244.480469 L 122.917969 244.320312 C 122.804688 243.878906 122.644531 243.546875 122.398438 243.214844 C 122.058594 242.761719 122.339844 243.09375 122.007812 242.800781 C 121.777344 242.597656 121.671875 242.527344 121.453125 242.382812 L 121.292969 242.21875 L 121.132812 242.21875 C 120.882812 242.21875 120.933594 242.289062 120.933594 242.058594 C 120.546875 241.960938 120.523438 241.910156 120 241.898438 L 118.382812 241.898438 C 117.703125 241.953125 117.851562 242.078125 117.246094 242.21875 L 117.089844 242.375 C 115.875 242.675781 115.457031 242.996094 114.179688 242.382812 L 114.015625 242.21875 C 113.042969 241.566406 113.054688 241.582031 112.402344 240.605469 L 112.238281 240.445312 C 112.003906 240 111.886719 239.714844 111.753906 239.15625 L 111.59375 238.992188 C 111.59375 237.804688 111.316406 237.355469 111.539062 236.03125 C 111.753906 234.773438 111.917969 234.550781 111.917969 233.046875 C 111.683594 233.046875 111.75 233.097656 111.75 232.851562 C 111.703125 232.207031 111.488281 231.9375 111.160156 231.507812 C 110.746094 230.957031 110.671875 230.945312 110.136719 230.59375 L 109.972656 230.425781 C 109.300781 230.273438 109.53125 230.128906 108.679688 230.109375 L 105.289062 230.109375 C 105.046875 230.101562 105.078125 230.109375 104.851562 230.058594 C 104.828125 230.054688 104.765625 230.050781 104.75 230.007812 C 104.730469 229.96875 104.691406 229.964844 104.660156 229.945312 L 104.316406 229.945312 L 104.148438 229.785156 C 102.8125 229.46875 102.734375 228.269531 102.867188 226.5625 C 102.914062 226.015625 103.070312 225.175781 103.214844 224.648438 C 103.378906 224.039062 103.6875 223.429688 103.839844 222.839844 L 103.992188 222.675781 C 104.34375 222.019531 104.523438 221.804688 104.988281 221.25 C 105.519531 220.609375 105.667969 220.546875 105.449219 219.609375 C 103.878906 219.242188 102.277344 219.484375 100.875 219.769531 L 100.597656 219.972656 C 99.792969 220.089844 99.320312 220.734375 99.152344 221.546875 C 99.152344 221.902344 99.242188 222.125 98.980469 222.289062 C 98.925781 223.089844 98.699219 223.667969 98.34375 224.140625 C 97.988281 224.617188 97.429688 225.046875 96.660156 225.101562 C 96.371094 225.351562 96.382812 225.261719 95.910156 225.261719 L 94.292969 225.261719 C 94.058594 225.261719 94.058594 225.261719 93.835938 225.21875 C 93.808594 225.210938 93.742188 225.214844 93.71875 225.167969 C 93.699219 225.117188 93.648438 225.121094 93.613281 225.101562 C 91.699219 225.101562 90.042969 223.820312 89.28125 222.675781 L 89.125 222.515625 C 88.75 221.972656 88.488281 221.703125 88.148438 221.066406 L 87.984375 220.902344 L 87.34375 219.496094 C 87.105469 219.496094 87.179688 219.546875 87.179688 219.285156 C 87.058594 218.777344 86.894531 218.175781 86.855469 217.605469 L 86.667969 217.183594 L 86.695312 214.765625 L 86.855469 214.417969 C 87.011719 212.660156 88.441406 212.476562 88.472656 210.566406 C 88.472656 210.304688 88.398438 210.355469 88.632812 210.355469 L 88.636719 210.082031 L 88.796875 209.90625 L 88.957031 209.273438 L 89.121094 209.089844 L 89.128906 208.949219 L 89.28125 208.796875 C 89.933594 207.523438 90.929688 206.550781 92.191406 205.882812 L 92.351562 205.722656 C 92.859375 205.601562 92.816406 205.511719 93.332031 205.398438 L 93.484375 205.246094 L 93.628906 205.234375 L 93.96875 205.089844 C 94.898438 204.972656 95.242188 204.746094 96.390625 204.746094 C 97.28125 204.746094 98.179688 204.75 99.074219 204.75 L 99.464844 204.589844 C 100.199219 204.574219 100.320312 204.40625 100.929688 204.265625 L 101.082031 204.113281 C 101.605469 203.976562 102.097656 203.707031 102.507812 203.457031 L 102.699219 203.300781 C 104.421875 202.371094 105.539062 202.191406 107.390625 203.128906 L 107.5625 203.296875 C 108.601562 204.035156 108.707031 203.726562 109.980469 203.621094 L 110.136719 203.460938 L 111.269531 203.457031 L 111.429688 203.621094 C 112.042969 203.945312 112.367188 204.289062 112.5625 205.039062 L 112.71875 205.234375 C 112.925781 206.0625 113.046875 206.246094 113.046875 207.320312 L 113.203125 207.496094 L 113.207031 207.832031 L 113.359375 207.984375 C 113.429688 208.609375 113.925781 209.605469 114.179688 210.078125 L 114.339844 210.242188 C 114.882812 211.253906 115.355469 211.71875 116.28125 212.339844 L 116.46875 212.503906 C 117.167969 212.484375 117.328125 212.292969 117.738281 212.019531 L 117.738281 209.097656 L 117.566406 208.789062 L 117.574219 208.203125 L 117.414062 207.820312 C 117.398438 207.164062 117.214844 206.753906 117.089844 206.195312 L 116.9375 206.042969 C 116.882812 205.519531 116.621094 204.804688 116.445312 204.402344 L 116.273438 204.101562 C 116.21875 203.277344 115.957031 203.316406 115.957031 202.234375 L 115.804688 201.84375 L 115.804688 201.359375 C 115.804688 200.710938 115.839844 200.996094 115.957031 200.851562 C 115.972656 200.277344 116.097656 199.96875 116.277344 199.582031 L 116.445312 199.421875 C 116.789062 198.90625 117.242188 198.386719 117.777344 198.007812 C 118.234375 197.679688 119.03125 197.253906 119.515625 197 L 119.675781 196.839844 C 121.101562 195.871094 122.328125 194.753906 123.21875 193.285156 C 123.21875 193.054688 123.160156 193.113281 123.394531 193.113281 C 123.753906 192.457031 124.34375 191.652344 124.527344 190.859375 L 124.6875 190.691406 C 124.839844 190.0625 125.144531 189.578125 125.140625 188.925781 Z M 109.972656 133.527344 C 109.761719 133.710938 109.792969 133.746094 109.429688 133.824219 C 108.65625 133.984375 108.917969 133.832031 108.976562 133.6875 L 109.167969 133.527344 L 109.972656 133.527344 " clip-rule="nonzero"/></clipPath><radialGradient gradientTransform="matrix(1.00053, 0, 0, 0.99947, 111.677996, 182.274656)" gradientUnits="userSpaceOnUse" r="144.010785" cx="0" id="5e29507268" cy="0" fx="0" fy="0"><stop stop-opacity="1" stop-color="rgb(99.804688%, 99.804688%, 99.804688%)" offset="0"/><stop stop-opacity="1" stop-color="rgb(99.539185%, 99.539185%, 99.539185%)" offset="0.015625"/><stop stop-opacity="1" stop-color="rgb(99.334717%, 99.334717%, 99.334717%)" offset="0.0195312"/><stop stop-opacity="1" stop-color="rgb(99.133301%, 99.133301%, 99.133301%)" offset="0.03125"/><stop stop-opacity="1" stop-color="rgb(98.933411%, 98.933411%, 98.933411%)" offset="0.0429688"/><stop stop-opacity="1" stop-color="rgb(98.736572%, 98.736572%, 98.736572%)" offset="0.0546875"/><stop stop-opacity="1" stop-color="rgb(98.603821%, 98.603821%, 98.603821%)" offset="0.0664062"/><stop stop-opacity="1" stop-color="rgb(98.461914%, 98.461914%, 98.461914%)" offset="0.0703125"/><stop stop-opacity="1" stop-color="rgb(98.196411%, 98.196411%, 98.196411%)" offset="0.0742188"/><stop stop-opacity="1" stop-color="rgb(97.999573%, 97.999573%, 97.999573%)" offset="0.0859375"/><stop stop-opacity="1" stop-color="rgb(97.93396%, 97.93396%, 97.93396%)" offset="0.0976562"/><stop stop-opacity="1" stop-color="rgb(97.73407%, 97.73407%, 97.73407%)" offset="0.101562"/><stop stop-opacity="1" stop-color="rgb(97.549438%, 97.549438%, 97.549438%)" offset="0.113281"/><stop stop-opacity="1" stop-color="rgb(97.337341%, 97.337341%, 97.337341%)" offset="0.125"/><stop stop-opacity="1" stop-color="rgb(97.036743%, 97.036743%, 97.036743%)" offset="0.136719"/><stop stop-opacity="1" stop-color="rgb(96.829224%, 96.829224%, 96.829224%)" offset="0.148438"/><stop stop-opacity="1" stop-color="rgb(96.629333%, 96.629333%, 96.629333%)" offset="0.160156"/><stop stop-opacity="1" stop-color="rgb(96.434021%, 96.434021%, 96.434021%)" offset="0.171875"/><stop stop-opacity="1" stop-color="rgb(96.296692%, 96.296692%, 96.296692%)" offset="0.183594"/><stop stop-opacity="1" stop-color="rgb(96.156311%, 96.156311%, 96.156311%)" offset="0.1875"/><stop stop-opacity="1" stop-color="rgb(95.892334%, 95.892334%, 95.892334%)" offset="0.191406"/><stop stop-opacity="1" stop-color="rgb(95.506287%, 95.506287%, 95.506287%)" offset="0.214844"/><stop stop-opacity="1" stop-color="rgb(95.301819%, 95.301819%, 95.301819%)" offset="0.226562"/><stop stop-opacity="1" stop-color="rgb(95.094299%, 95.094299%, 95.094299%)" offset="0.238281"/><stop stop-opacity="1" stop-color="rgb(94.703674%, 94.703674%, 94.703674%)" offset="0.25"/><stop stop-opacity="1" stop-color="rgb(94.424438%, 94.424438%, 94.424438%)" offset="0.261719"/><stop stop-opacity="1" stop-color="rgb(94.258118%, 94.258118%, 94.258118%)" offset="0.269531"/><stop stop-opacity="1" stop-color="rgb(94.094849%, 94.094849%, 94.094849%)" offset="0.277344"/><stop stop-opacity="1" stop-color="rgb(93.937683%, 93.937683%, 93.937683%)" offset="0.285156"/><stop stop-opacity="1" stop-color="rgb(93.782043%, 93.782043%, 93.782043%)" offset="0.292969"/><stop stop-opacity="1" stop-color="rgb(93.621826%, 93.621826%, 93.621826%)" offset="0.300781"/><stop stop-opacity="1" stop-color="rgb(93.457031%, 93.457031%, 93.457031%)" offset="0.308594"/><stop stop-opacity="1" stop-color="rgb(93.293762%, 93.293762%, 93.293762%)" offset="0.316406"/><stop stop-opacity="1" stop-color="rgb(93.136597%, 93.136597%, 93.136597%)" offset="0.324219"/><stop stop-opacity="1" stop-color="rgb(92.979431%, 92.979431%, 92.979431%)" offset="0.332031"/><stop stop-opacity="1" stop-color="rgb(92.819214%, 92.819214%, 92.819214%)" offset="0.339844"/><stop stop-opacity="1" stop-color="rgb(92.556763%, 92.556763%, 92.556763%)" offset="0.347656"/><stop stop-opacity="1" stop-color="rgb(92.190552%, 92.190552%, 92.190552%)" offset="0.367188"/><stop stop-opacity="1" stop-color="rgb(91.902161%, 91.902161%, 91.902161%)" offset="0.386719"/><stop stop-opacity="1" stop-color="rgb(91.699219%, 91.699219%, 91.699219%)" offset="0.402344"/><stop stop-opacity="1" stop-color="rgb(91.50238%, 91.50238%, 91.50238%)" offset="0.417969"/><stop stop-opacity="1" stop-color="rgb(91.300964%, 91.300964%, 91.300964%)" offset="0.425781"/><stop stop-opacity="1" stop-color="rgb(91.093445%, 91.093445%, 91.093445%)" offset="0.433594"/><stop stop-opacity="1" stop-color="rgb(90.794373%, 90.794373%, 90.794373%)" offset="0.441406"/><stop stop-opacity="1" stop-color="rgb(90.403748%, 90.403748%, 90.403748%)" offset="0.457031"/><stop stop-opacity="1" stop-color="rgb(90.19928%, 90.19928%, 90.19928%)" offset="0.472656"/><stop stop-opacity="1" stop-color="rgb(89.996338%, 89.996338%, 89.996338%)" offset="0.488281"/><stop stop-opacity="1" stop-color="rgb(89.605713%, 89.605713%, 89.605713%)" offset="0.503906"/><stop stop-opacity="1" stop-color="rgb(89.399719%, 89.399719%, 89.399719%)" offset="0.515625"/><stop stop-opacity="1" stop-color="rgb(89.193726%, 89.193726%, 89.193726%)" offset="0.527344"/><stop stop-opacity="1" stop-color="rgb(88.999939%, 88.999939%, 88.999939%)" offset="0.539062"/><stop stop-opacity="1" stop-color="rgb(88.807678%, 88.807678%, 88.807678%)" offset="0.550781"/><stop stop-opacity="1" stop-color="rgb(88.545227%, 88.545227%, 88.545227%)" offset="0.5625"/><stop stop-opacity="1" stop-color="rgb(88.336182%, 88.336182%, 88.336182%)" offset="0.566406"/><stop stop-opacity="1" stop-color="rgb(88.134766%, 88.134766%, 88.134766%)" offset="0.578125"/><stop stop-opacity="1" stop-color="rgb(87.88147%, 87.88147%, 87.88147%)" offset="0.589844"/><stop stop-opacity="1" stop-color="rgb(87.528992%, 87.528992%, 87.528992%)" offset="0.613281"/><stop stop-opacity="1" stop-color="rgb(87.193298%, 87.193298%, 87.193298%)" offset="0.625"/><stop stop-opacity="1" stop-color="rgb(86.938477%, 86.938477%, 86.938477%)" offset="0.636719"/><stop stop-opacity="1" stop-color="rgb(86.773682%, 86.773682%, 86.773682%)" offset="0.644531"/><stop stop-opacity="1" stop-color="rgb(86.497498%, 86.497498%, 86.497498%)" offset="0.652344"/><stop stop-opacity="1" stop-color="rgb(86.219788%, 86.219788%, 86.219788%)" offset="0.671875"/><stop stop-opacity="1" stop-color="rgb(86.018372%, 86.018372%, 86.018372%)" offset="0.679688"/><stop stop-opacity="1" stop-color="rgb(85.800171%, 85.800171%, 85.800171%)" offset="0.699219"/><stop stop-opacity="1" stop-color="rgb(85.604858%, 85.604858%, 85.604858%)" offset="0.714844"/><stop stop-opacity="1" stop-color="rgb(85.403442%, 85.403442%, 85.403442%)" offset="0.722656"/><stop stop-opacity="1" stop-color="rgb(85.195923%, 85.195923%, 85.195923%)" offset="0.730469"/><stop stop-opacity="1" stop-color="rgb(84.896851%, 84.896851%, 84.896851%)" offset="0.738281"/><stop stop-opacity="1" stop-color="rgb(84.700012%, 84.700012%, 84.700012%)" offset="0.753906"/><stop stop-opacity="1" stop-color="rgb(84.634399%, 84.634399%, 84.634399%)" offset="0.765625"/><stop stop-opacity="1" stop-color="rgb(84.498596%, 84.498596%, 84.498596%)" offset="0.769531"/><stop stop-opacity="1" stop-color="rgb(84.358215%, 84.358215%, 84.358215%)" offset="0.773438"/><stop stop-opacity="1" stop-color="rgb(84.092712%, 84.092712%, 84.092712%)" offset="0.777344"/><stop stop-opacity="1" stop-color="rgb(83.706665%, 83.706665%, 83.706665%)" offset="0.789062"/><stop stop-opacity="1" stop-color="rgb(83.44574%, 83.44574%, 83.44574%)" offset="0.8125"/><stop stop-opacity="1" stop-color="rgb(83.235168%, 83.235168%, 83.235168%)" offset="0.816406"/><stop stop-opacity="1" stop-color="rgb(82.899475%, 82.899475%, 82.899475%)" offset="0.824219"/><stop stop-opacity="1" stop-color="rgb(82.698059%, 82.698059%, 82.698059%)" offset="0.84375"/><stop stop-opacity="1" stop-color="rgb(82.546997%, 82.546997%, 82.546997%)" offset="0.863281"/><stop stop-opacity="1" stop-color="rgb(82.2052%, 82.2052%, 82.2052%)" offset="0.878906"/><stop stop-opacity="1" stop-color="rgb(81.999207%, 81.999207%, 81.999207%)" offset="0.890625"/><stop stop-opacity="1" stop-color="rgb(81.793213%, 81.793213%, 81.793213%)" offset="0.902344"/><stop stop-opacity="1" stop-color="rgb(81.402588%, 81.402588%, 81.402588%)" offset="0.914062"/><stop stop-opacity="1" stop-color="rgb(81.103516%, 81.103516%, 81.103516%)" offset="0.933594"/><stop stop-opacity="1" stop-color="rgb(80.830383%, 80.830383%, 80.830383%)" offset="0.941406"/><stop stop-opacity="1" stop-color="rgb(80.488586%, 80.488586%, 80.488586%)" offset="0.953125"/><stop stop-opacity="1" stop-color="rgb(80.157471%, 80.157471%, 80.157471%)" offset="0.964844"/><stop stop-opacity="1" stop-color="rgb(79.998779%, 79.998779%, 79.998779%)" offset="1"/></radialGradient></defs><g clip-path="url(#f40358ff50)"><path fill="#39b54a" d="M 226.507812 84.242188 C 229.816406 36.273438 184.195312 16.011719 184.195312 16.011719 C 159.636719 65.488281 193.449219 99.675781 209.558594 112.355469 C 210.113281 112.898438 210.730469 113.398438 211.425781 113.828125 C 303.988281 171.285156 363.238281 86.277344 363.238281 86.277344 C 307.714844 43.667969 256.199219 64.1875 226.507812 84.242188 " fill-opacity="1" fill-rule="nonzero"/></g><path fill="#231f20" d="M 260.089844 37.703125 L 260.09375 37.707031 L 260.089844 37.703125 " fill-opacity="1" fill-rule="nonzero"/><path fill="#231f20" d="M 259.957031 37.609375 L 259.953125 37.605469 L 259.957031 37.609375 " fill-opacity="1" fill-rule="nonzero"/><path fill="#231f20" d="M 259.992188 37.632812 L 259.984375 37.628906 L 259.996094 37.632812 Z M 259.992188 37.632812 " fill-opacity="1" fill-rule="nonzero"/><g clip-path="url(#c8797d0039)"><path fill="#009245" d="M 361.96875 85.316406 C 307.855469 44.699219 257.6875 63.707031 228.023438 83.273438 C 227.398438 83.683594 226.578125 83.210938 226.609375 82.464844 C 226.730469 79.78125 226.695312 77.1875 226.527344 74.679688 C 225.664062 66.402344 223.535156 57.71875 219.363281 49.34375 C 210.289062 32.082031 195.152344 22.011719 188.070312 18.023438 L 188.066406 18.019531 C 187.273438 17.585938 186.464844 17.160156 185.644531 16.738281 C 184.886719 17.238281 185.0625 17.121094 184.304688 17.625 C 186.136719 41.089844 198.589844 75.785156 208.792969 97.488281 C 208.933594 97.796875 208.902344 98.160156 208.691406 98.425781 C 207.164062 100.390625 206.441406 102.761719 206.484375 105.109375 C 206.496094 105.53125 206.789062 105.894531 207.203125 105.988281 C 208.785156 106.34375 210.75 106.644531 213.046875 106.886719 C 213.351562 106.917969 214.582031 106.992188 214.582031 106.992188 L 216.746094 107.308594 L 218.527344 107.398438 L 220.464844 107.488281 L 221.273438 107.488281 C 221.273438 107.488281 221.761719 107.472656 222.160156 107.488281 C 255.640625 108.6875 324.035156 102.433594 361.765625 86.898438 C 362.421875 86.628906 362.535156 85.742188 361.96875 85.316406 M 264.382812 218.660156 C 264.382812 284.441406 211.148438 337.769531 145.480469 337.769531 C 79.8125 337.769531 26.578125 284.441406 26.578125 218.660156 C 26.578125 152.878906 79.8125 99.550781 145.480469 99.550781 C 211.148438 99.550781 264.382812 152.878906 264.382812 218.660156 " fill-opacity="1" fill-rule="evenodd"/></g><path fill="#b2b2b2" d="M 226.664062 82.824219 C 226.625 82.714844 226.605469 82.59375 226.609375 82.464844 C 226.730469 79.78125 226.695312 77.1875 226.527344 74.679688 C 226.523438 74.664062 226.523438 74.65625 226.523438 74.640625 C 226.460938 73.75 226.382812 72.867188 226.289062 72 C 226.304688 71.984375 226.324219 71.972656 226.34375 71.960938 C 226.726562 75.40625 226.851562 79.027344 226.664062 82.824219 " fill-opacity="1" fill-rule="nonzero"/><path fill="#287e34" d="M 210.875 113.292969 C 210.613281 113.140625 210.363281 112.972656 210.117188 112.777344 C 206.589844 110.035156 202.140625 106.21875 197.617188 101.386719 C 198.300781 97.324219 200.253906 93.5625 203.320312 90.59375 C 203.867188 90.054688 204.421875 89.523438 204.972656 89 C 206.265625 91.996094 207.542969 94.839844 208.792969 97.488281 C 208.878906 97.679688 208.898438 97.886719 208.855469 98.085938 C 207.484375 99.761719 206.726562 101.738281 206.542969 103.746094 C 206.496094 104.203125 206.480469 104.65625 206.484375 105.109375 C 206.488281 105.1875 206.5 105.265625 206.519531 105.339844 C 206.699219 108.398438 208.195312 111.371094 210.875 113.292969 M 226.523438 74.640625 C 226.433594 73.78125 226.328125 72.917969 226.210938 72.046875 C 226.238281 72.03125 226.261719 72.015625 226.289062 72 C 226.382812 72.867188 226.460938 73.75 226.523438 74.640625 " fill-opacity="1" fill-rule="nonzero"/><path fill="#006630" d="M 206.519531 105.339844 C 206.5 105.265625 206.488281 105.1875 206.484375 105.109375 C 206.480469 104.65625 206.496094 104.203125 206.542969 103.746094 C 206.496094 104.277344 206.488281 104.808594 206.519531 105.339844 M 208.855469 98.085938 C 208.898438 97.886719 208.878906 97.679688 208.792969 97.488281 C 207.542969 94.839844 206.265625 91.996094 204.972656 89 C 211.855469 82.484375 218.945312 76.828125 226.210938 72.046875 C 226.328125 72.917969 226.433594 73.78125 226.523438 74.640625 C 226.523438 74.65625 226.523438 74.664062 226.527344 74.679688 C 226.695312 77.1875 226.730469 79.78125 226.609375 82.464844 C 226.605469 82.59375 226.625 82.714844 226.664062 82.824219 C 226.664062 82.835938 226.664062 82.847656 226.664062 82.859375 C 221.03125 86.914062 215.371094 91.660156 209.691406 97.175781 C 209.390625 97.46875 209.113281 97.769531 208.855469 98.085938 " fill-opacity="1" fill-rule="nonzero"/><g clip-path="url(#c079dd46fa)"><g clip-path="url(#b756dedf1d)"><path fill="url(#5e29507268)" d="M 52.691406 110.453125 L 52.691406 326.089844 L 254.363281 326.089844 L 254.363281 110.453125 Z M 52.691406 110.453125 " fill-rule="nonzero"/></g></g></svg>